<svg width="18" height="19" viewBox="0 0 18 19" fill="none" xmlns="http://www.w3.org/2000/svg">
<g clip-path="url(#clip0)">
<path d="M16.3738 8.79594L14.8801 7.30197C14.5834 7.00546 14.1028 7.00546 13.806 7.30197C13.5092 7.59871 13.5092 8.07985 13.806 8.37636L15.2997 9.87033C16.8777 11.4486 16.8762 14.0352 15.2997 15.633C13.7219 17.2107 11.1353 17.2095 9.53704 15.633L8.04307 14.1393C7.74657 13.8425 7.26547 13.8425 6.96868 14.1393C6.6719 14.4361 6.6719 14.9169 6.96868 15.2134L8.46617 16.7109C9.56183 17.7919 10.9955 18.3327 12.4262 18.3327C13.8598 18.3327 15.291 17.7896 16.3776 16.7035C18.5421 14.5095 18.5406 10.9624 16.3738 8.79594Z" fill="#5061DC"/>
<path d="M11.0308 3.45395L9.53334 1.95618C7.33977 -0.208034 3.7925 -0.206276 1.62221 1.96353C-0.542248 4.15737 -0.54049 7.70436 1.62601 9.87086L3.11998 11.3648C3.26812 11.5132 3.46257 11.5874 3.65705 11.5874C3.85125 11.5874 4.04573 11.5132 4.19412 11.3646C4.49087 11.0681 4.49087 10.587 4.19412 10.2904L2.70015 8.79646C1.12212 7.21844 1.12363 4.63187 2.70015 3.03408C4.27842 1.4563 6.86499 1.45785 8.46278 3.03408L9.95675 4.52805C10.2535 4.82484 10.7341 4.82484 11.0309 4.52805C11.3276 4.23155 11.3276 3.75045 11.0308 3.45395Z" fill="#5061DC"/>
<path d="M11.461 10.7208L7.61213 6.872C7.31563 6.57522 6.83453 6.57522 6.53799 6.872C6.24124 7.1685 6.24124 7.64961 6.53799 7.94614L10.3868 11.795C10.5352 11.9434 10.7294 12.0175 10.9239 12.0175C11.1184 12.0175 11.3126 11.9434 11.461 11.795C11.7577 11.4984 11.7577 11.0173 11.461 10.7208Z" fill="#5061DC"/>
</g>
<defs>
<clipPath id="clip0">
<rect width="18" height="18" fill="white" transform="translate(0 0.333374)"/>
</clipPath>
</defs>
</svg>
