<svg width="24" height="25" viewBox="0 0 24 25" fill="none" xmlns="http://www.w3.org/2000/svg">
<path d="M19.5003 9.68746C19.5003 5.37496 15.844 1.90621 11.4753 2.20621C7.70652 2.46871 4.68777 5.56246 4.51902 9.31246C4.38777 11.9937 5.66277 14.375 7.65027 15.8C8.62527 16.4937 9.18777 17.6187 9.18777 18.8187V20.9375H14.8128V18.8187C14.8128 17.6 15.4128 16.475 16.4065 15.7625C18.2815 14.4125 19.5003 12.1812 19.5003 9.68746Z" fill="white"/>
<path d="M12 9.6126V15.6876C12 17.7876 13.05 19.7563 14.8125 20.9376V18.8188C14.8125 17.6001 15.4125 16.4751 16.4062 15.7626C18.2812 14.4126 19.5 12.1813 19.5 9.6876C19.5 9.5751 19.5 9.48135 19.5 9.3876C19.3125 4.53135 12 4.75635 12 9.6126Z" fill="#FCCA3D"/>
<path d="M4.51855 9.29375C5.6998 9.0125 7.10605 8.1875 8.3623 6.93125C9.91855 5.375 10.8186 3.59375 10.8186 2.28125C7.3873 2.825 4.70605 5.76875 4.51855 9.29375Z" fill="white"/>
<path d="M14.8129 19.3812C14.4941 19.3812 14.2504 19.1375 14.2504 18.8187C14.2504 17.4312 14.9254 16.1187 16.0691 15.2937C17.8691 14 18.9379 11.9 18.9379 9.68749C18.9379 7.77499 18.1316 5.91874 16.7254 4.60624C15.3004 3.27499 13.4441 2.61874 11.4941 2.74999C8.00662 3.01249 5.25037 5.84374 5.08162 9.34999C4.96912 11.7312 6.05662 13.9625 7.98787 15.35C8.23162 15.5375 8.30662 15.875 8.11912 16.1375C7.93162 16.3812 7.59412 16.4562 7.33162 16.2687C5.08162 14.675 3.82537 12.0687 3.95662 9.31249C4.14412 5.20624 7.36912 1.92499 11.4379 1.64374C13.7066 1.49374 15.8629 2.24374 17.5129 3.79999C19.1441 5.31874 20.0629 7.45624 20.0629 9.68749C20.0629 12.2562 18.8066 14.7125 16.7254 16.2125C15.8816 16.8312 15.3754 17.8062 15.3754 18.8187C15.3754 19.1375 15.1316 19.3812 14.8129 19.3812Z" fill="#454B54"/>
<path d="M15.2064 19.0625H12.0002H8.79395V20.9375H15.2064V19.0625Z" fill="white"/>
<path d="M15.2064 21.5H8.79395C8.4752 21.5 8.23145 21.2562 8.23145 20.9375V19.0625C8.23145 18.7437 8.4752 18.5 8.79395 18.5H15.2064C15.3564 18.5 15.5064 18.5563 15.6002 18.6688C15.6939 18.7813 15.7689 18.9125 15.7689 19.0625L15.7502 20.9375C15.7502 21.2562 15.5064 21.5 15.2064 21.5ZM9.35645 20.375H14.6439V19.625H9.35645V20.375ZM12.3752 23.375H11.6252C11.3064 23.375 11.0627 23.1312 11.0627 22.8125C11.0627 22.4938 11.3064 22.25 11.6252 22.25H12.3752C12.6939 22.25 12.9377 22.4938 12.9377 22.8125C12.9377 23.1312 12.6939 23.375 12.3752 23.375Z" fill="#454B54"/>
</svg>
