<svg width="18" height="18" viewBox="0 0 30 36" fill="none" xmlns="http://www.w3.org/2000/svg">
<path fill-rule="evenodd" clip-rule="evenodd" d="M14.582 36C13.892 36 13.332 35.44 13.332 34.75V29.4817C13.332 28.7917 13.892 28.2317 14.582 28.2317C15.272 28.2317 15.832 28.7917 15.832 29.4817V34.75C15.832 35.44 15.272 36 14.582 36Z" fill="#a0a7b1"/>
<path fill-rule="evenodd" clip-rule="evenodd" d="M14.5825 2.66669C11.5392 2.66669 9.0625 5.15669 9.0625 8.21835V16.0317C9.0625 19.09 11.5392 21.5817 14.5825 21.5817C17.6258 21.5817 20.1025 19.09 20.1025 16.0317V8.21835C20.1025 5.15669 17.6258 2.66669 14.5825 2.66669ZM14.5825 24.0817C10.1608 24.0817 6.5625 20.47 6.5625 16.0317V8.21835C6.5625 3.77835 10.1608 0.166687 14.5825 0.166687C19.0042 0.166687 22.6025 3.77835 22.6025 8.21835V16.0317C22.6025 20.47 19.0042 24.0817 14.5825 24.0817Z" fill="#a0a7b1"/>
<mask id="mask0" mask-type="alpha" maskUnits="userSpaceOnUse" x="0" y="14" width="30" height="17">
<path fill-rule="evenodd" clip-rule="evenodd" d="M0 14.8348H29.1658V30.7315H0V14.8348Z" fill="#a0a7b1"/>
</mask>
<g mask="url(#mask0)">
<path fill-rule="evenodd" clip-rule="evenodd" d="M14.5824 30.7315C6.54069 30.7315 -0.000976562 24.1615 -0.000976562 16.0848C-0.000976562 15.3948 0.559023 14.8348 1.24902 14.8348C1.94069 14.8348 2.49902 15.3948 2.49902 16.0848C2.49902 22.7815 7.91902 28.2315 14.5824 28.2315C21.2457 28.2315 26.6657 22.7815 26.6657 16.0848C26.6657 15.3948 27.2257 14.8348 27.9157 14.8348C28.6074 14.8348 29.1657 15.3948 29.1657 16.0848C29.1657 24.1615 22.624 30.7315 14.5824 30.7315Z" fill="#a0a7b1"/>
</g>
</svg>
