<svg width="29" height="27" viewBox="0 0 29 27" fill="none" xmlns="http://www.w3.org/2000/svg">
<mask id="mask0" mask-type="alpha" maskUnits="userSpaceOnUse" x="0" y="0" width="21" height="27">
<path fill-rule="evenodd" clip-rule="evenodd" d="M0 0.833679H20.0333V26.6702H0V0.833679Z" fill="white"/>
</mask>
<g mask="url(#mask0)">
<path fill-rule="evenodd" clip-rule="evenodd" d="M15.3466 3.34351C13.9 3.34351 12.05 4.81184 10.51 6.03518C9.02831 7.21018 7.85831 8.14018 6.69164 8.22684C6.17497 8.26351 5.73164 8.28018 5.34164 8.29351C4.09664 8.33518 3.78164 8.36351 3.21997 8.82684C2.48331 9.43184 2.49497 11.9035 2.50164 13.3785L2.50331 13.7468V13.7535L2.50164 14.1218C2.49497 15.5985 2.48331 18.0702 3.21997 18.6752C3.77997 19.1385 4.09497 19.1652 5.33664 19.2102C5.72831 19.2218 6.17331 19.2385 6.69164 19.2768C7.85831 19.3618 9.02831 20.2918 10.51 21.4668C12.3483 22.9252 14.6266 24.7335 16.135 23.9818C17.3983 22.8868 17.5333 19.9835 17.5333 13.7502C17.5333 7.51684 17.3983 4.61518 16.135 3.51851C15.89 3.39684 15.625 3.34351 15.3466 3.34351ZM15.3633 26.6702C13.045 26.6702 10.7466 24.8452 8.95664 23.4252C8.14831 22.7835 6.92664 21.8135 6.50497 21.7702C6.02664 21.7335 5.61331 21.7185 5.24831 21.7085C3.91831 21.6602 2.86664 21.6252 1.62997 20.6052C-0.0233607 19.2435 -0.0083607 16.3968 0.0016393 14.1102L0.00330597 13.7502L0.0016393 13.3902C-0.0083607 11.1035 -0.0233607 8.25851 1.62997 6.89684C2.86831 5.87684 3.92164 5.84018 5.25497 5.79518C5.61831 5.78184 6.02997 5.76851 6.50831 5.73351C6.92664 5.68851 8.14831 4.71851 8.95664 4.07684C11.2866 2.22518 14.4816 -0.303157 17.4566 1.39184C17.5083 1.42351 17.56 1.45684 17.6066 1.49518C19.93 3.32018 20.0333 6.76184 20.0333 13.7502C20.0333 20.7402 19.93 24.1818 17.6066 26.0085C17.56 26.0452 17.5083 26.0802 17.455 26.1102C16.765 26.5035 16.0633 26.6702 15.3633 26.6702Z" fill="#98A4BC"/>
</g>
<path fill-rule="evenodd" clip-rule="evenodd" d="M25.551 21.1447C25.3393 21.1447 25.126 21.0913 24.9293 20.978C24.331 20.6347 24.1243 19.8697 24.4677 19.273C26.4193 15.8713 26.4193 11.6413 24.4677 8.22967C24.1243 7.62967 24.3327 6.86634 24.931 6.52301C25.531 6.18634 26.2927 6.38801 26.636 6.98634C29.0277 11.1663 29.0277 16.3497 26.636 20.5163C26.4043 20.9197 25.9843 21.1447 25.551 21.1447Z" fill="#98A4BC"/>
</svg>
